<?xml version="1.0" encoding="UTF-8"?>
<!-- Generator: visioncortex VTracer -->
<svg id="svg" version="1.1" xmlns="http://www.w3.org/2000/svg" style="display: block; " viewBox="0 0 1024 1024"><path d="M0 0 C2.97135441 3.96180588 4.43349514 7.22759523 6.22265625 11.81640625 C6.83842529 13.37633301 7.45419434 14.93625977 8.08862305 16.54345703 C8.74000244 18.19974121 9.39138184 19.85602539 10.0625 21.5625 C20.44317088 47.51107478 32.99239623 71.42105582 51 93 C52.02609375 94.22976563 53.0521875 95.45953125 54.109375 96.7265625 C64.44477832 108.93879279 75.55560444 118.6361077 88.3125 128.25 C95.12684465 135.22281778 90.82578757 142.2948424 87 150 C83.21872218 156.61723618 79.76744548 159.70542575 72 161 C59.82498085 158.27424944 51.36033359 149.74034876 43 141 C42.175 140.195625 41.35 139.39125 40.5 138.5625 C33.21190401 131.09220161 26.48585663 123.16774802 20 115 C18.96359375 113.69675781 17.9271875 112.39351562 16.859375 111.05078125 C9.83202681 102.0541413 3.57086287 92.96163837 -2 83 C-3.01320313 81.23462891 -3.01320313 81.23462891 -4.046875 79.43359375 C-13.40625851 62.61935245 -32.87911551 26.51646203 -28 7 C-27.01 8.485 -27.01 8.485 -26 10 C-22.22732366 8.71352036 -18.45687914 7.42107444 -14.6875 6.125 C-13.61564453 5.76019531 -12.54378906 5.39539063 -11.43945312 5.01953125 C-5.48483614 3.0077629 -5.48483614 3.0077629 0 0 Z " transform="translate(471,644)" style="fill: #000000;"/><path d="M0 0 C1.28773315 -0.0007251 2.57546631 -0.0014502 3.90222168 -0.00219727 C31.00858983 -0.00052779 58.05089769 0.91724015 85.125 2.1875 C86.18398545 57.2547432 84.285343 113.81790199 75.125 168.1875 C74.92036133 169.44143555 74.71572266 170.69537109 74.50488281 171.98730469 C67.27467214 215.96298066 56.48881031 260.28823952 32.125 298.1875 C31.50625 299.30125 30.8875 300.415 30.25 301.5625 C22.26293103 315.1875 22.26293103 315.1875 19.125 315.1875 C18.465 316.8375 17.805 318.4875 17.125 320.1875 C12.43816446 326.35438887 7.44442379 332.14726395 2.2265625 337.8671875 C0.40521102 339.87812204 -1.36488735 341.93525247 -3.125 344 C-29.90127701 375.03613926 -73.72926298 394.00261105 -113.875 398.1875 C-114.92816406 398.29835938 -115.98132813 398.40921875 -117.06640625 398.5234375 C-135.07773626 400.09703658 -153.24969503 399.11725511 -171.2890625 398.5456543 C-186.15303186 398.09886579 -201.00587896 398.09332541 -215.875 398.1875 C-217.69475593 388.87121963 -218.22526038 379.98285348 -218.1875 370.5 C-218.18331055 369.05262451 -218.17912109 367.60524902 -218.17480469 366.11401367 C-218.04180782 353.28759755 -216.85822429 340.87151277 -214.875 328.1875 C-214.61976563 326.42535156 -214.36453125 324.66320312 -214.1015625 322.84765625 C-210.03757546 297.6248376 -201.83839193 273.62786412 -191.875 250.1875 C-191.47627686 249.20023926 -191.07755371 248.21297852 -190.66674805 247.19580078 C-178.95170134 218.28275935 -160.60922821 191.3444777 -139.875 168.1875 C-139.029375 167.23101562 -138.18375 166.27453125 -137.3125 165.2890625 C-126.53593766 153.29685136 -115.22990955 141.17687097 -102.4921875 131.24609375 C-99.46633682 128.86605896 -96.58943227 126.34193485 -93.6875 123.8125 C-86.45612111 117.68839939 -78.788328 112.38830698 -70.875 107.1875 C-69.42351562 106.22972656 -67.97203125 105.27195312 -66.4765625 104.28515625 C-39.6854131 86.97780082 -11.34619555 73.68998045 18.62890625 62.9296875 C25.0476078 60.44251036 25.87062201 58.62160288 26.375 51.8125 C26.09370697 47.7337511 25.10363143 44.16613143 22.125 41.1875 C5.48410699 39.71851082 -14.94337861 49.74542923 -29.875 56.1875 C-31.31359375 56.79078125 -32.7521875 57.3940625 -34.234375 58.015625 C-64.06931645 70.83280201 -93.07306374 87.13116227 -117.875 108.1875 C-118.97714844 109.115625 -120.07929687 110.04375 -121.21484375 111 C-139.02779317 124.45694182 -139.02779317 124.45694182 -152.875 141.1875 C-153.535 141.1875 -154.195 141.1875 -154.875 141.1875 C-155.205 142.1775 -155.535 143.1675 -155.875 144.1875 C-157.51660821 145.87885391 -159.19050956 147.53884979 -160.875 149.1875 C-163.55774256 152.17313285 -166.22332891 155.17423739 -168.875 158.1875 C-170.6075 160.1365625 -170.6075 160.1365625 -172.375 162.125 C-179.63333429 170.5498523 -185.74285377 178.92442031 -191.48046875 188.453125 C-193.875 192.1875 -193.875 192.1875 -196.375 195.15234375 C-242.6759005 251.36453076 -247.62340316 338.18856664 -246.875 407.1875 C-247.205 407.1875 -247.535 407.1875 -247.875 407.1875 C-247.9678125 404.6196875 -247.9678125 404.6196875 -248.0625 402 C-250.27077182 392.7405632 -259.0221046 389.50337787 -266.70703125 385.13671875 C-272.42458487 381.87386691 -276.88154977 378.45821401 -281.875 374.1875 C-284.70702306 371.87339555 -287.5404931 369.56106137 -290.375 367.25 C-348.43877182 319.2553858 -361.6023256 247.4703723 -335.88671875 177.80078125 C-333.98385101 173.20064468 -332.00935989 168.68490119 -329.875 164.1875 C-329.37967773 163.13691406 -328.88435547 162.08632813 -328.37402344 161.00390625 C-324.23277552 152.44105054 -319.46217452 144.55260043 -314.125 136.6875 C-313.33295166 135.51131104 -312.54090332 134.33512207 -311.72485352 133.12329102 C-255.83759224 50.77782218 -163.27454756 12.40354143 -66.875 3.0625 C-65.21210937 2.89363281 -63.54921875 2.72476563 -61.8359375 2.55078125 C-41.2159515 0.51443738 -20.7050886 -0.01191507 0 0 Z M-272.625 134.8125 C-276.23583889 141.54457251 -278.48628016 147.62669196 -279.875 155.1875 C-280.14957031 156.43917969 -280.42414063 157.69085938 -280.70703125 158.98046875 C-287.75600838 194.16098018 -283.88957614 245.17583909 -253.875 269.1875 C-245.49185699 267.09171425 -239.64343325 260.5243996 -237.875 252.1875 C-237.67695236 244.56266599 -239.7478057 240.15586546 -244.03125 233.90625 C-259.89816893 210.50926785 -257.41808224 179.21828575 -253.5546875 152.59765625 C-251.44058118 136.91956423 -251.44058118 136.91956423 -255.875 122.1875 C-265.13628323 120.33524335 -268.34863269 127.55794832 -272.625 134.8125 Z M-38.875 188.1875 C-38.875 188.8475 -38.875 189.5075 -38.875 190.1875 C-40.195 190.8475 -41.515 191.5075 -42.875 192.1875 C-43.82246094 192.72503906 -44.76992188 193.26257813 -45.74609375 193.81640625 C-58.05659981 200.490777 -71.07911875 204.15120153 -84.42285156 208.14550781 C-113.28515073 216.85726827 -145.39926158 231.97389237 -162.75 258 C-164.875 261.1875 -164.875 261.1875 -168.8125 265.875 C-180.92230759 280.95047475 -185.385981 304.20455577 -184.875 323.1875 C-181.6287067 319.12002938 -181.6287067 319.12002938 -179.1875 313.6875 C-157.54082824 269.9707497 -110.99825386 249.8957924 -66.8671875 235.53125 C-48.84524841 229.465157 -33.00894648 219.57542012 -17.875 208.1875 C-16.9365625 207.48625 -15.998125 206.785 -15.03125 206.0625 C-5.38937337 198.62779995 6.80880265 187.40768457 6.125 174.1875 C-8.92660261 162.14621791 -30.6195238 173.37620447 -38.875 188.1875 Z " transform="translate(685.875,225.8125)" style="display: block; background: rgb(255, 255, 255); " fill="currentColor"/></svg>