<svg width="214" height="120" viewBox="0 0 214 120" fill="none" xmlns="http://www.w3.org/2000/svg">
<path d="M29.88 90.68H34.8V105H30.52V103.36C28.52 104.72 26.0133 105.4 23 105.4C20.4133 105.4 18.04 104.84 15.88 103.72C13.72 102.6 11.9867 100.973 10.68 98.84C9.4 96.7067 8.76 94.16 8.76 91.2C8.76 88.4 9.41333 85.8933 10.72 83.68C12.0267 81.44 13.8267 79.7067 16.12 78.48C18.44 77.2267 21.04 76.6 23.92 76.6C26.2667 76.6 28.4 76.9867 30.32 77.76C32.24 78.5333 33.8533 79.6667 35.16 81.16L31.88 84.36C29.7467 82.2267 27.1733 81.16 24.16 81.16C22.1867 81.16 20.4267 81.5867 18.88 82.44C17.36 83.2667 16.16 84.44 15.28 85.96C14.4267 87.48 14 89.2133 14 91.16C14 93.2133 14.4267 94.9867 15.28 96.48C16.16 97.9467 17.32 99.0667 18.76 99.84C20.2 100.587 21.7733 100.96 23.48 100.96C24.68 100.96 25.8267 100.773 26.92 100.4C28.04 100.027 29.0267 99.48 29.88 98.76V90.68ZM45.9384 86.76C47.3784 84.52 49.9118 83.4 53.5384 83.4V88.16C53.1118 88.08 52.7251 88.04 52.3784 88.04C50.4318 88.04 48.9118 88.6133 47.8184 89.76C46.7251 90.88 46.1784 92.5067 46.1784 94.64V105H41.1784V83.64H45.9384V86.76ZM67.7447 101.04C70.0647 101.04 71.998 100.267 73.5447 98.72L76.1847 101.8C75.2514 102.947 74.0514 103.813 72.5847 104.4C71.118 104.987 69.4647 105.28 67.6247 105.28C65.278 105.28 63.2114 104.813 61.4247 103.88C59.638 102.947 58.2514 101.653 57.2647 100C56.3047 98.32 55.8247 96.4267 55.8247 94.32C55.8247 92.24 56.2914 90.3733 57.2247 88.72C58.1847 87.04 59.4914 85.7333 61.1447 84.8C62.8247 83.8667 64.718 83.4 66.8247 83.4C68.8247 83.4 70.638 83.84 72.2647 84.72C73.918 85.5733 75.2247 86.8133 76.1847 88.44C77.1447 90.04 77.6247 91.92 77.6247 94.08L61.2647 97.28C61.7714 98.5067 62.5847 99.44 63.7047 100.08C64.8247 100.72 66.1714 101.04 67.7447 101.04ZM66.8247 87.4C64.9847 87.4 63.4914 88 62.3447 89.2C61.2247 90.4 60.6647 92.0133 60.6647 94.04V94.08L72.7447 91.76C72.398 90.4533 71.6914 89.4 70.6247 88.6C69.5847 87.8 68.318 87.4 66.8247 87.4ZM92.5884 101.04C94.9084 101.04 96.8418 100.267 98.3884 98.72L101.028 101.8C100.095 102.947 98.8951 103.813 97.4284 104.4C95.9618 104.987 94.3084 105.28 92.4684 105.28C90.1218 105.28 88.0551 104.813 86.2684 103.88C84.4818 102.947 83.0951 101.653 82.1084 100C81.1484 98.32 80.6684 96.4267 80.6684 94.32C80.6684 92.24 81.1351 90.3733 82.0684 88.72C83.0284 87.04 84.3351 85.7333 85.9884 84.8C87.6684 83.8667 89.5618 83.4 91.6684 83.4C93.6684 83.4 95.4818 83.84 97.1084 84.72C98.7618 85.5733 100.068 86.8133 101.028 88.44C101.988 90.04 102.468 91.92 102.468 94.08L86.1084 97.28C86.6151 98.5067 87.4284 99.44 88.5484 100.08C89.6684 100.72 91.0151 101.04 92.5884 101.04ZM91.6684 87.4C89.8284 87.4 88.3351 88 87.1884 89.2C86.0684 90.4 85.5084 92.0133 85.5084 94.04V94.08L97.5884 91.76C97.2418 90.4533 96.5351 89.4 95.4684 88.6C94.4284 87.8 93.1618 87.4 91.6684 87.4ZM119.392 83.4C122.086 83.4 124.246 84.1867 125.872 85.76C127.499 87.3333 128.312 89.6667 128.312 92.76V105H123.312V93.4C123.312 91.5333 122.872 90.1333 121.992 89.2C121.112 88.24 119.859 87.76 118.232 87.76C116.392 87.76 114.939 88.32 113.872 89.44C112.806 90.5333 112.272 92.12 112.272 94.2V105H107.272V83.64H112.032V86.4C112.859 85.4133 113.899 84.6667 115.152 84.16C116.406 83.6533 117.819 83.4 119.392 83.4ZM146.495 83.4C148.575 83.4 150.428 83.8533 152.055 84.76C153.708 85.6667 155.002 86.9467 155.935 88.6C156.868 90.2533 157.335 92.16 157.335 94.32C157.335 96.48 156.868 98.4 155.935 100.08C155.002 101.733 153.708 103.013 152.055 103.92C150.428 104.827 148.575 105.28 146.495 105.28C145.028 105.28 143.682 105.027 142.455 104.52C141.255 104.013 140.242 103.253 139.415 102.24V105H134.655V75.32H139.655V86.24C140.508 85.3067 141.508 84.6 142.655 84.12C143.828 83.64 145.108 83.4 146.495 83.4ZM145.935 101C147.775 101 149.282 100.387 150.455 99.16C151.655 97.9333 152.255 96.32 152.255 94.32C152.255 92.32 151.655 90.7067 150.455 89.48C149.282 88.2533 147.775 87.64 145.935 87.64C144.735 87.64 143.655 87.92 142.695 88.48C141.735 89.0133 140.975 89.7867 140.415 90.8C139.855 91.8133 139.575 92.9867 139.575 94.32C139.575 95.6533 139.855 96.8267 140.415 97.84C140.975 98.8533 141.735 99.64 142.695 100.2C143.655 100.733 144.735 101 145.935 101ZM171.677 105.28C169.517 105.28 167.57 104.813 165.837 103.88C164.104 102.947 162.744 101.653 161.757 100C160.797 98.32 160.317 96.4267 160.317 94.32C160.317 92.2133 160.797 90.3333 161.757 88.68C162.744 87.0267 164.104 85.7333 165.837 84.8C167.57 83.8667 169.517 83.4 171.677 83.4C173.864 83.4 175.824 83.8667 177.557 84.8C179.29 85.7333 180.637 87.0267 181.597 88.68C182.584 90.3333 183.077 92.2133 183.077 94.32C183.077 96.4267 182.584 98.32 181.597 100C180.637 101.653 179.29 102.947 177.557 103.88C175.824 104.813 173.864 105.28 171.677 105.28ZM171.677 101C173.517 101 175.037 100.387 176.237 99.16C177.437 97.9333 178.037 96.32 178.037 94.32C178.037 92.32 177.437 90.7067 176.237 89.48C175.037 88.2533 173.517 87.64 171.677 87.64C169.837 87.64 168.317 88.2533 167.117 89.48C165.944 90.7067 165.357 92.32 165.357 94.32C165.357 96.32 165.944 97.9333 167.117 99.16C168.317 100.387 169.837 101 171.677 101ZM200.755 105L195.275 97.6L189.755 105H184.235L192.555 94.16L184.595 83.64H190.155L195.395 90.64L200.635 83.64H206.035L198.035 94.08L206.395 105H200.755Z" fill="black"/>
<rect y="115" width="214" height="5" fill="black"/>
<path d="M103.025 62.08C103.273 62.4428 103.395 62.7419 103.545 63.1621C103.596 63.305 103.647 63.4478 103.7 63.595C103.755 63.7467 103.809 63.8984 103.865 64.0547C104.732 66.431 105.78 68.6206 107.283 70.5967C107.369 70.7094 107.454 70.822 107.543 70.938C108.406 72.0564 109.333 72.9444 110.398 73.8248C110.967 74.4634 110.608 75.111 110.289 75.8167C109.973 76.4227 109.685 76.7055 109.036 76.824C108.02 76.5744 107.313 75.7929 106.615 74.9925C106.546 74.9188 106.477 74.8451 106.406 74.7692C105.798 74.0851 105.236 73.3594 104.695 72.6114C104.608 72.4921 104.522 72.3728 104.433 72.2498C103.846 71.4259 103.323 70.5932 102.858 69.681C102.773 69.5193 102.773 69.5193 102.687 69.3544C101.906 67.8145 100.28 64.5083 100.687 62.7211C100.77 62.8571 100.77 62.8571 100.854 62.9958C101.169 62.878 101.484 62.7596 101.799 62.6409C101.888 62.6075 101.978 62.5741 102.07 62.5397C102.567 62.3555 102.567 62.3555 103.025 62.08Z" fill="black"/>
<path d="M121.733 21.7282C121.845 21.7282 121.957 21.7281 122.073 21.728C124.434 21.7282 126.789 21.8174 129.147 21.9409C129.239 27.293 129.074 32.7905 128.276 38.0749C128.258 38.1968 128.24 38.3186 128.222 38.4442C127.592 42.7183 126.653 47.0264 124.531 50.71C124.477 50.8182 124.423 50.9265 124.368 51.038C123.672 52.3623 123.672 52.3623 123.399 52.3623C123.341 52.5226 123.284 52.683 123.225 52.8482C122.816 53.4476 122.381 54.0106 121.927 54.5666C121.768 54.762 121.614 54.962 121.461 55.1626C119.129 58.1791 115.312 60.0225 111.815 60.4293C111.724 60.4401 111.632 60.4508 111.537 60.4619C109.969 60.6149 108.386 60.5197 106.815 60.4641C105.52 60.4207 104.227 60.4201 102.932 60.4293C102.773 59.5238 102.727 58.6599 102.73 57.7383C102.731 57.5976 102.731 57.4569 102.732 57.312C102.743 56.0653 102.846 54.8586 103.019 53.6258C103.041 53.4545 103.063 53.2832 103.086 53.1068C103.44 50.6553 104.154 48.323 105.022 46.0447C105.057 45.9488 105.092 45.8528 105.127 45.754C106.148 42.9438 107.745 40.3256 109.551 38.0749C109.625 37.9819 109.698 37.889 109.774 37.7932C110.713 36.6276 111.697 35.4496 112.807 34.4844C113.07 34.2531 113.321 34.0078 113.574 33.762C114.203 33.1667 114.871 32.6516 115.56 32.1461C115.687 32.053 115.813 31.9599 115.943 31.864C118.277 30.1819 120.745 28.8904 123.356 27.8446C123.915 27.6028 123.986 27.4259 124.03 26.7641C124.006 26.3676 123.919 26.0209 123.66 25.7314C122.211 25.5886 120.432 26.5632 119.131 27.1893C119.006 27.2479 118.881 27.3065 118.752 27.367C116.153 28.6127 113.627 30.1968 111.467 32.2433C111.371 32.3335 111.275 32.4237 111.176 32.5167C109.625 33.8246 109.625 33.8246 108.419 35.4507C108.361 35.4507 108.304 35.4507 108.245 35.4507C108.216 35.5469 108.187 35.6431 108.157 35.7423C108.014 35.9066 107.869 36.068 107.722 36.2282C107.488 36.5184 107.256 36.8101 107.025 37.103C106.874 37.2924 106.874 37.2924 106.72 37.4857C106.088 38.3045 105.556 39.1184 105.056 40.0446C104.848 40.4075 104.848 40.4075 104.63 40.6957C100.598 46.1591 100.167 54.5978 100.232 61.304C100.203 61.304 100.174 61.304 100.145 61.304C100.137 61.0545 100.137 61.0545 100.128 60.7998C99.9362 59.8999 99.174 59.5853 98.5047 59.1608C98.0067 58.8437 97.6185 58.5117 97.1837 58.0967C96.937 57.8717 96.6902 57.647 96.4434 57.4224C91.3864 52.7576 90.2399 45.7806 92.4796 39.0092C92.6453 38.5621 92.8173 38.1232 93.0032 37.6861C93.0463 37.584 93.0894 37.4819 93.1339 37.3767C93.4946 36.5444 93.9101 35.7777 94.3749 35.0133C94.4439 34.899 94.5129 34.7847 94.5839 34.6669C99.4513 26.6635 107.513 22.9338 115.909 22.0259C116.054 22.0095 116.198 21.9931 116.348 21.9762C118.143 21.7782 119.93 21.7271 121.733 21.7282ZM97.9893 34.8311C97.6748 35.4854 97.4788 36.0765 97.3578 36.8114C97.3339 36.933 97.31 37.0547 97.2854 37.18C96.6715 40.5993 97.0082 45.5576 99.6223 47.8914C100.352 47.6877 100.862 47.0494 101.016 46.2391C101.033 45.498 100.853 45.0697 100.48 44.4623C99.0977 42.1883 99.3137 39.147 99.6502 36.5597C99.8343 35.0359 99.8343 35.0359 99.4481 33.604C98.6415 33.424 98.3617 34.126 97.9893 34.8311ZM118.347 40.0188C118.347 40.0829 118.347 40.147 118.347 40.2131C118.232 40.2773 118.117 40.3414 117.999 40.4075C117.916 40.4598 117.834 40.512 117.749 40.5658C116.677 41.2145 115.543 41.5703 114.38 41.9585C111.867 42.8053 109.07 44.2745 107.559 46.804C107.374 47.1138 107.374 47.1138 107.031 47.5694C105.976 49.0347 105.587 51.2948 105.632 53.1398C105.914 52.7445 105.914 52.7445 106.127 52.2165C108.012 47.9675 112.066 46.0164 115.909 44.6202C117.479 44.0307 118.858 43.0694 120.176 41.9626C120.258 41.8945 120.34 41.8263 120.424 41.7561C121.264 41.0335 122.326 39.943 122.267 38.6581C120.956 37.4877 119.066 38.5792 118.347 40.0188Z" fill="black"/>
</svg>
